<svg width="16" height="16" viewBox="0 0 16 16" fill="none" xmlns="http://www.w3.org/2000/svg">
<path d="M6.14453 15.4229C6.04613 15.4078 5.9485 15.3904 5.85156 15.3711C5.86008 15.3728 5.86843 15.3753 5.87695 15.377L6.14453 15.4229ZM6.14453 15.4229C6.23476 15.4366 6.32561 15.4479 6.41699 15.458C6.32562 15.4479 6.23475 15.4366 6.14453 15.4229ZM7.53809 15.4883C7.41427 15.4953 7.2896 15.4989 7.16406 15.499C7.2896 15.4989 7.41427 15.4953 7.53809 15.4883ZM6.48633 15.4658C6.65768 15.483 6.83093 15.4922 7.00586 15.4961L6.80176 15.4912C6.6959 15.4856 6.59082 15.4763 6.48633 15.4658ZM5.71289 15.3408C5.6465 15.3261 5.58027 15.3116 5.51465 15.2949C5.58027 15.3116 5.64651 15.3261 5.71289 15.3408ZM8.85449 15.2793C8.82122 15.288 8.78835 15.2984 8.75488 15.3066C8.78835 15.2984 8.82122 15.288 8.85449 15.2793ZM5.43457 15.2734C5.36183 15.254 5.28951 15.2337 5.21777 15.2119C5.28951 15.2337 5.36183 15.254 5.43457 15.2734ZM5.11621 15.1797C5.03843 15.1546 4.96127 15.1284 4.88477 15.1006C4.96127 15.1284 5.03843 15.1546 5.11621 15.1797ZM4.84473 15.0859C4.76248 15.0554 4.68127 15.0229 4.60059 14.9893C4.68126 15.0229 4.76248 15.0555 4.84473 15.0859ZM9.82422 14.9414C9.71837 14.9878 9.61157 15.0323 9.50293 15.0732C9.61157 15.0323 9.71837 14.9878 9.82422 14.9414ZM4.51855 14.9541C4.45627 14.9272 4.39429 14.8999 4.33301 14.8711C4.39429 14.8999 4.45627 14.9272 4.51855 14.9541ZM4.22168 14.8174C4.15628 14.7852 4.09151 14.752 4.02734 14.7178C4.09151 14.752 4.15628 14.7852 4.22168 14.8174ZM3.95801 14.6807C3.88892 14.6427 3.8205 14.6038 3.75293 14.5635C3.8205 14.6038 3.88892 14.6427 3.95801 14.6807ZM10.6787 14.4922C10.6171 14.5307 10.5552 14.5689 10.4922 14.6055C10.5552 14.5689 10.6171 14.5307 10.6787 14.4922ZM3.67578 14.5166C3.61589 14.4798 3.55667 14.442 3.49805 14.4033C3.55667 14.442 3.61588 14.4798 3.67578 14.5166ZM10.917 14.3359C10.864 14.3723 10.8109 14.4085 10.7568 14.4434C10.8109 14.4085 10.864 14.3723 10.917 14.3359ZM3.41211 14.3467C3.35401 14.3071 3.29699 14.266 3.24023 14.2246C3.29699 14.266 3.35401 14.3071 3.41211 14.3467ZM11.2061 14.126C11.1418 14.1753 11.0768 14.2235 11.0107 14.2705C11.0768 14.2235 11.1418 14.1753 11.2061 14.126ZM3.14453 14.1543C3.09091 14.1137 3.03866 14.0715 2.98633 14.0293C3.03867 14.0714 3.09091 14.1137 3.14453 14.1543ZM11.4277 13.9482C11.3701 13.9965 11.3122 14.0445 11.2529 14.0908C11.3122 14.0445 11.3701 13.9965 11.4277 13.9482ZM2.9043 13.9639C2.86473 13.931 2.82687 13.8961 2.78809 13.8623C2.82687 13.8961 2.86473 13.931 2.9043 13.9639ZM11.6758 13.7305C11.6165 13.7853 11.5563 13.839 11.4951 13.8916C11.5563 13.839 11.6166 13.7853 11.6758 13.7305ZM2.02637 13.084C2.16034 13.2459 2.30174 13.4013 2.4502 13.5498L2.24316 13.334C2.16875 13.2526 2.09671 13.169 2.02637 13.084ZM11.8906 13.5225C11.8328 13.5809 11.7747 13.639 11.7148 13.6953C11.7747 13.639 11.8329 13.5809 11.8906 13.5225ZM12.3086 13.0566C12.1922 13.1988 12.071 13.3368 11.9434 13.4688C12.0709 13.3367 12.1922 13.1988 12.3086 13.0566ZM1.97852 13.0234C1.9319 12.9658 1.88552 12.9079 1.84082 12.8486C1.88553 12.9079 1.93189 12.9658 1.97852 13.0234ZM12.4902 12.8262C12.4417 12.891 12.3916 12.9546 12.3408 13.0176C12.3916 12.9546 12.4417 12.891 12.4902 12.8262ZM13.6631 10.2568C13.4631 11.1813 13.0714 12.0339 12.5312 12.7715C13.0711 12.0339 13.4631 11.1812 13.6631 10.2568ZM1.74121 12.7109C1.71378 12.6726 1.68581 12.6346 1.65918 12.5957C1.68581 12.6346 1.71378 12.6726 1.74121 12.7109ZM1.55762 12.4414C1.53567 12.4073 1.51352 12.3734 1.49219 12.3389C1.51353 12.3734 1.53567 12.4073 1.55762 12.4414ZM1.40918 12.1992C1.38393 12.1561 1.35829 12.1131 1.33398 12.0693C1.35829 12.1131 1.38392 12.1561 1.40918 12.1992ZM1.2627 11.9355C1.2367 11.8861 1.2113 11.8363 1.18652 11.7861C1.21131 11.8363 1.23669 11.8861 1.2627 11.9355ZM1.11621 11.6406C1.09881 11.6031 1.08215 11.5652 1.06543 11.5273C1.08216 11.5652 1.0988 11.6031 1.11621 11.6406ZM0.993164 11.3574C0.974236 11.3111 0.955406 11.2646 0.9375 11.2178C0.955412 11.2646 0.97423 11.3111 0.993164 11.3574ZM0.87793 11.0547C0.860949 11.0065 0.844996 10.9579 0.829102 10.9092C0.845001 10.9579 0.860944 11.0065 0.87793 11.0547ZM0.78418 10.7695C0.770315 10.7236 0.758011 10.6772 0.745117 10.6309C0.758015 10.6772 0.77031 10.7236 0.78418 10.7695ZM0.697266 10.4541C0.685848 10.4082 0.676475 10.3617 0.666016 10.3154C0.676479 10.3617 0.685843 10.4082 0.697266 10.4541ZM13.7197 9.96094C13.705 10.0478 13.6889 10.1341 13.6709 10.2197C13.6889 10.1341 13.705 10.0478 13.7197 9.96094ZM0.62793 10.1406C0.617558 10.0882 0.608741 10.0353 0.599609 9.98242C0.608745 10.0353 0.617553 10.0882 0.62793 10.1406ZM13.75 9.7627C13.7428 9.81499 13.735 9.86705 13.7266 9.91895C13.735 9.8671 13.7418 9.81493 13.749 9.7627H13.75ZM0.573242 9.82812C0.565262 9.77435 0.559421 9.7202 0.552734 9.66602C0.559425 9.7202 0.565258 9.77435 0.573242 9.82812ZM0.524414 8.28809C0.509321 8.47102 0.5 8.65593 0.5 8.84277C0.5 8.65593 0.509317 8.47103 0.524414 8.28809ZM8.5 0.518555C12.2436 0.765033 15.235 3.75636 15.4814 7.5H8.5V0.518555ZM0.922852 6.50488C1.04368 6.18289 1.18937 5.87322 1.35645 5.57715C1.18937 5.87321 1.04368 6.18288 0.922852 6.50488ZM1.72852 4.98828C1.76412 4.93823 1.80192 4.88983 1.83887 4.84082C1.80192 4.88983 1.76413 4.93823 1.72852 4.98828ZM2.30371 4.28613C2.3365 4.25123 2.37077 4.21778 2.4043 4.18359C2.37077 4.21778 2.3365 4.25124 2.30371 4.28613ZM2.99609 3.64648C3.03124 3.61831 3.06779 3.59193 3.10352 3.56445C3.06779 3.59192 3.03124 3.61831 2.99609 3.64648ZM3.22852 3.46875C3.27827 3.43232 3.32909 3.39737 3.37988 3.3623C3.32909 3.39737 3.27827 3.43233 3.22852 3.46875ZM3.48242 3.29102C3.54674 3.24837 3.61285 3.20842 3.67871 3.16797C3.61285 3.20841 3.54674 3.24837 3.48242 3.29102ZM3.73828 3.12988C3.79164 3.09788 3.84607 3.06764 3.90039 3.03711C3.84607 3.06764 3.79164 3.09789 3.73828 3.12988ZM4.01465 2.97266C4.07028 2.94282 4.12703 2.91501 4.18359 2.88672C4.12703 2.91501 4.07028 2.94282 4.01465 2.97266ZM4.28418 2.83594C4.32829 2.8148 4.37333 2.79557 4.41797 2.77539C4.37333 2.79557 4.32829 2.81481 4.28418 2.83594ZM4.87207 2.58887C4.90984 2.57506 4.94824 2.56294 4.98633 2.5498C4.94824 2.56294 4.90984 2.57506 4.87207 2.58887ZM5.17188 2.4873C5.21707 2.4732 5.26299 2.4614 5.30859 2.44824C5.263 2.4614 5.21707 2.4732 5.17188 2.4873ZM5.46582 2.40332C5.51082 2.39153 5.55619 2.38098 5.60156 2.37012C5.55619 2.38099 5.51082 2.39153 5.46582 2.40332ZM5.79004 2.32617C5.81402 2.32117 5.83823 2.31725 5.8623 2.3125C5.83823 2.31725 5.81401 2.32116 5.79004 2.32617ZM6.2373 2.25098C6.19167 2.25729 6.14592 2.26229 6.10059 2.26953C6.14593 2.2623 6.19166 2.25729 6.2373 2.25098ZM10.0977 14.8145C10.0435 14.8412 9.98954 14.8683 9.93457 14.8936C9.98954 14.8683 10.0435 14.8412 10.0977 14.8145Z" stroke="black"/>
</svg>
