<svg width="17" height="15" viewBox="0 0 17 15" fill="none" xmlns="http://www.w3.org/2000/svg">
<path d="M5.2041 0.0107422C6.04449 0.0959434 6.72981 0.701472 6.93555 1.5H13.5C15.433 1.5 17 3.067 17 5V11C17 12.933 15.433 14.5 13.5 14.5H3.5C1.567 14.5 0 12.933 0 11V3C0 1.39489 1.26055 0.0842144 2.8457 0.00390625L3 0H5L5.2041 0.0107422ZM3 1C1.89543 1 1 1.89543 1 3V4H5C5.55228 4 6 3.55228 6 3V2C6 1.44772 5.55228 1 5 1H3ZM1 11C1 12.3807 2.11929 13.5 3.5 13.5H13.5C14.8807 13.5 16 12.3807 16 11V5C16 3.61929 14.8807 2.5 13.5 2.5H7V3L6.98926 3.2041C6.8938 4.14565 6.14565 4.8938 5.2041 4.98926L5 5H1V11Z" fill="#424242"/>
</svg>
