<svg width="12" height="16" viewBox="0 0 12 16" fill="none" xmlns="http://www.w3.org/2000/svg">
<path d="M6.13766 0.0146484C10.4007 0.31735 12.7956 5.21882 10.2607 8.79102L5.49996 15.5L1.04 8.58789C-1.35067 4.88235 1.30989 9.6846e-09 5.71969 0L6.13766 0.0146484ZM5.71969 1C2.10189 1 -0.0802653 5.00484 1.88082 8.04492L5.53902 13.7158L9.44527 8.21289L9.63375 7.92578C11.4553 4.9298 9.31336 1.00006 5.71969 1ZM5.96773 3.5127C7.22799 3.64109 8.21187 4.70586 8.21187 6L8.19918 6.25586C8.07107 7.51621 7.00595 8.4997 5.71187 8.5L5.45602 8.4873C4.27957 8.36777 3.34418 7.43228 3.22457 6.25586L3.21187 6C3.21187 4.61929 4.33116 3.5 5.71187 3.5L5.96773 3.5127ZM5.71187 4.5C4.88345 4.5 4.21187 5.17157 4.21187 6C4.21187 6.82843 4.88345 7.5 5.71187 7.5C6.54003 7.49968 7.21187 6.82823 7.21187 6C7.21187 5.17177 6.54003 4.50032 5.71187 4.5Z" fill="#888888"/>
</svg>
