<svg width="238" height="179" viewBox="0 0 238 179" fill="none" xmlns="http://www.w3.org/2000/svg">
<path d="M220.15 178.5H89.25C79.3953 178.5 71.4 170.505 71.4 160.65C71.4 160.092 71.5395 146.472 82.3703 133.085C88.5992 125.415 97.1524 119.279 107.704 114.956C120.441 109.703 136.246 107.1 154.7 107.1C173.154 107.1 188.913 109.75 201.696 114.956C212.248 119.279 220.754 125.368 227.03 133.085C237.907 146.472 238 160.046 238 160.65C238 170.505 230.005 178.5 220.15 178.5ZM83.3 160.696C83.3 163.95 85.9961 166.6 89.25 166.6H220.15C223.404 166.6 226.1 163.95 226.1 160.696C226.1 160.278 225.728 150.052 217.314 140.057C205.693 126.252 184.078 119 154.7 119C125.322 119 103.707 126.298 92.0856 140.057C83.6719 150.052 83.3 160.278 83.3 160.696Z" fill="white"/>
<path d="M154.7 95.2C128.436 95.2 107.1 73.8637 107.1 47.6C107.1 21.3363 128.436 0 154.7 0C180.964 0 202.3 21.3363 202.3 47.6C202.3 73.8637 180.964 95.2 154.7 95.2ZM154.7 11.9C135.037 11.9 119 27.9371 119 47.6C119 67.2629 135.037 83.3 154.7 83.3C174.363 83.3 190.4 67.2629 190.4 47.6C190.4 27.9371 174.363 11.9 154.7 11.9Z" fill="white"/>
<path d="M53.55 178.5H17.85C7.99531 178.5 0 170.505 0 160.65C0 160.232 0.0929691 149.633 7.90234 139.221C12.4113 133.224 18.5473 128.436 26.1242 125.089C35.2352 121.045 46.4379 119 59.5 119C61.6383 119 63.7301 119.046 65.7754 119.186C69.0758 119.372 71.5859 122.161 71.4 125.461C71.2141 128.762 68.425 131.272 65.1246 131.086C63.3117 130.993 61.4059 130.946 59.5 130.946C13.1551 130.946 11.9465 159.255 11.9 160.743C11.9 163.997 14.5961 166.646 17.85 166.646H53.55C56.8504 166.646 59.5 169.296 59.5 172.596C59.5 175.897 56.8504 178.5 53.55 178.5Z" fill="white"/>
<path d="M59.5001 107.1C39.8372 107.1 23.8 91.0629 23.8 71.4C23.8 51.7371 39.8372 35.7 59.5001 35.7C79.1629 35.7 95.2001 51.7371 95.2001 71.4C95.2001 91.0629 79.1629 107.1 59.5001 107.1ZM59.5001 47.6C46.3915 47.6 35.7 58.2914 35.7 71.4C35.7 84.5086 46.3915 95.2 59.5001 95.2C72.6086 95.2 83.3 84.5086 83.3 71.4C83.3 58.2914 72.6086 47.6 59.5001 47.6Z" fill="white"/>
</svg>
