<svg width="226" height="62" viewBox="0 0 226 62" fill="none" xmlns="http://www.w3.org/2000/svg">
<path d="M31.4941 25.7236C32.1135 25.3711 32.8733 25.3749 33.4893 25.7334L60.9248 41.7031C62.267 42.4846 62.2451 44.4306 60.8857 45.1816L33.5293 60.2891C32.9053 60.6337 32.1445 60.6206 31.5332 60.2539L4.91602 44.2832C3.604 43.496 3.6254 41.587 4.95508 40.8301L31.4941 25.7236Z" fill="#458BC9" stroke="white" stroke-width="2"/>
<path d="M31.4941 13.7236C32.1135 13.3711 32.8733 13.3749 33.4893 13.7334L60.9248 29.7031C62.267 30.4846 62.2451 32.4306 60.8857 33.1816L33.5293 48.2891C32.9053 48.6337 32.1445 48.6206 31.5332 48.2539L4.91602 32.2832C3.604 31.496 3.6254 29.587 4.95508 28.8301L31.4941 13.7236Z" fill="#458BC9" stroke="white" stroke-width="2"/>
<path d="M31.4941 1.72363C32.1135 1.37111 32.8733 1.37488 33.4893 1.7334L60.9248 17.7031C62.267 18.4846 62.2451 20.4306 60.8857 21.1816L33.5293 36.2891C32.9053 36.6337 32.1445 36.6206 31.5332 36.2539L4.91602 20.2832C3.604 19.496 3.6254 17.587 4.95508 16.8301L31.4941 1.72363Z" fill="#458BC9" stroke="white" stroke-width="2"/>
<path d="M102.261 31.4545C102.261 34.6269 101.66 37.3258 100.457 39.5511C99.2642 41.7765 97.6354 43.4763 95.571 44.6506C93.5161 45.8153 91.2055 46.3977 88.6392 46.3977C86.054 46.3977 83.7339 45.8106 81.679 44.6364C79.6241 43.4621 78 41.7623 76.8068 39.5369C75.6136 37.3116 75.017 34.6174 75.017 31.4545C75.017 28.2822 75.6136 25.5833 76.8068 23.358C78 21.1326 79.6241 19.4375 81.679 18.2727C83.7339 17.0985 86.054 16.5114 88.6392 16.5114C91.2055 16.5114 93.5161 17.0985 95.571 18.2727C97.6354 19.4375 99.2642 21.1326 100.457 23.358C101.66 25.5833 102.261 28.2822 102.261 31.4545ZM96.0256 31.4545C96.0256 29.3996 95.7178 27.6667 95.1023 26.2557C94.4962 24.8447 93.6392 23.7746 92.5312 23.0455C91.4233 22.3163 90.1259 21.9517 88.6392 21.9517C87.1525 21.9517 85.8551 22.3163 84.7472 23.0455C83.6392 23.7746 82.7775 24.8447 82.1619 26.2557C81.5559 27.6667 81.2528 29.3996 81.2528 31.4545C81.2528 33.5095 81.5559 35.2424 82.1619 36.6534C82.7775 38.0644 83.6392 39.1345 84.7472 39.8636C85.8551 40.5928 87.1525 40.9574 88.6392 40.9574C90.1259 40.9574 91.4233 40.5928 92.5312 39.8636C93.6392 39.1345 94.4962 38.0644 95.1023 36.6534C95.7178 35.2424 96.0256 33.5095 96.0256 31.4545ZM102.017 46V16.9091H113.495C115.692 16.9091 117.567 17.3021 119.12 18.0881C120.682 18.8646 121.871 19.9678 122.685 21.3977C123.509 22.8182 123.921 24.4896 123.921 26.4119C123.921 28.3437 123.504 30.0057 122.671 31.3977C121.838 32.7803 120.63 33.8409 119.049 34.5795C117.477 35.3182 115.573 35.6875 113.338 35.6875H105.654V30.7443H112.344C113.518 30.7443 114.494 30.5833 115.27 30.2614C116.047 29.9394 116.624 29.4564 117.003 28.8125C117.392 28.1686 117.586 27.3684 117.586 26.4119C117.586 25.446 117.392 24.6316 117.003 23.9688C116.624 23.3059 116.042 22.804 115.256 22.4631C114.48 22.1127 113.499 21.9375 112.316 21.9375H108.168V46H102.017ZM117.728 32.7614L124.958 46H118.168L111.094 32.7614H117.728ZM128.482 46H121.891L131.933 16.9091H139.86L149.888 46H143.297L136.01 23.5568H135.783L128.482 46ZM128.07 34.5653H143.638V39.3665H128.07V34.5653ZM154.356 16.9091L160.223 26.8239H160.45L166.345 16.9091H173.291L164.413 31.4545L173.49 46H166.416L160.45 36.071H160.223L154.257 46H147.212L156.317 31.4545L147.382 16.9091H154.356ZM181.73 46H178.946L189.528 16.9091H192.369L202.951 46H200.167L191.048 20.3608H190.849L181.73 46ZM183.733 34.8494H198.164V37.2358H183.733V34.8494ZM210.593 16.9091V46H207.937V16.9091H210.593Z" fill="black"/>
<path d="M216.716 15.4943V10.2528H219.372C219.585 10.2528 219.817 10.3144 220.068 10.4375C220.319 10.5559 220.532 10.7405 220.707 10.9915C220.887 11.2377 220.977 11.5502 220.977 11.929C220.977 12.3125 220.885 12.6392 220.7 12.9091C220.516 13.1742 220.291 13.3755 220.026 13.5128C219.765 13.6501 219.519 13.7188 219.287 13.7188H217.369V12.8665H218.932C219.088 12.8665 219.256 12.7884 219.436 12.6321C219.621 12.4759 219.713 12.2415 219.713 11.929C219.713 11.607 219.621 11.3892 219.436 11.2756C219.256 11.1619 219.098 11.1051 218.96 11.1051H217.866V15.4943H216.716ZM219.884 13.0227L221.19 15.4943H219.926L218.648 13.0227H219.884ZM218.705 18.6193C217.919 18.6193 217.182 18.4725 216.496 18.179C215.809 17.8854 215.205 17.4782 214.685 16.9574C214.164 16.4366 213.757 15.8329 213.463 15.1463C213.17 14.4598 213.023 13.7235 213.023 12.9375C213.023 12.1515 213.17 11.4152 213.463 10.7287C213.757 10.0421 214.164 9.43845 214.685 8.91761C215.205 8.39678 215.809 7.98958 216.496 7.69602C217.182 7.40246 217.919 7.25568 218.705 7.25568C219.491 7.25568 220.227 7.40246 220.913 7.69602C221.6 7.98958 222.204 8.39678 222.724 8.91761C223.245 9.43845 223.652 10.0421 223.946 10.7287C224.24 11.4152 224.386 12.1515 224.386 12.9375C224.386 13.7235 224.24 14.4598 223.946 15.1463C223.652 15.8329 223.245 16.4366 222.724 16.9574C222.204 17.4782 221.6 17.8854 220.913 18.179C220.227 18.4725 219.491 18.6193 218.705 18.6193ZM218.705 17.2557C219.5 17.2557 220.224 17.0616 220.878 16.6733C221.531 16.285 222.052 15.7642 222.44 15.1108C222.829 14.4574 223.023 13.733 223.023 12.9375C223.023 12.142 222.829 11.4176 222.44 10.7642C222.052 10.1108 221.531 9.58996 220.878 9.2017C220.224 8.81345 219.5 8.61932 218.705 8.61932C217.909 8.61932 217.185 8.81345 216.531 9.2017C215.878 9.58996 215.357 10.1108 214.969 10.7642C214.58 11.4176 214.386 12.142 214.386 12.9375C214.386 13.733 214.58 14.4574 214.969 15.1108C215.357 15.7642 215.878 16.285 216.531 16.6733C217.185 17.0616 217.909 17.2557 218.705 17.2557Z" fill="black"/>
</svg>
